<svg xmlns="http://www.w3.org/2000/svg" viewBox="0 0 24 24" width="48" height="48">
  <path fill="white" d="M24 4.557a9.83 9.83 0 0 1-2.828.775 4.932 4.932 0 0 0 2.165-2.724 9.865 9.865 0 0 1-3.127 1.194 4.916 4.916 0 0 0-8.384 4.482A13.957 13.957 0 0 1 1.671 3.15 4.915 4.915 0 0 0 3.195 9.723a4.903 4.903 0 0 1-2.228-.616v.06a4.916 4.916 0 0 0 3.946 4.827 4.902 4.902 0 0 1-2.224.084 4.919 4.919 0 0 0 4.59 3.415A9.868 9.868 0 0 1 .96 19.54 13.934 13.934 0 0 0 7.548 21c9.142 0 14.307-7.721 14.307-14.416 0-.22-.005-.439-.015-.656A10.243 10.243 0 0 0 24 4.557z"/>
</svg>
