<svg xmlns="http://www.w3.org/2000/svg" viewBox="0 0 24 24" width="48" height="48">
  <path fill="white" d="M12 0C5.37 0 0 5.37 0 12c0 5.3 3.438 9.8 8.207 11.387.6.11.793-.26.793-.577v-2.234c-3.338.726-4.04-1.61-4.04-1.61-.547-1.387-1.334-1.756-1.334-1.756-1.09-.746.084-.73.084-.73 1.205.085 1.84 1.236 1.84 1.236 1.07 1.835 2.807 1.305 3.493.998.107-.776.418-1.305.763-1.606-2.665-.304-5.467-1.332-5.467-5.93 0-1.31.467-2.384 1.236-3.224-.123-.303-.536-1.523.117-3.176 0 0 1.007-.322 3.3 1.23.957-.266 1.984-.398 3.006-.403 1.022.005 2.05.137 3.007.403 2.29-1.553 3.295-1.23 3.295-1.23.655 1.653.243 2.873.12 3.176.77.84 1.234 1.914 1.234 3.224 0 4.61-2.807 5.623-5.48 5.92.43.37.814 1.1.814 2.217v3.293c0 .318.19.69.8.573C20.565 21.8 24 17.3 24 12c0-6.63-5.373-12-12-12z"/>
</svg>
